<?xml version="1.0" encoding="UTF-8" standalone="no"?>
<svg
   height="40px"
   viewBox="0 -960 960 960"
   width="40px"
   fill="#e3e3e3"
   version="1.1"
   id="svg1"
   sodipodi:docname="bool_xor.svg"
   inkscape:version="1.4.3 (0d15f75, 2025-12-25)"
   xmlns:inkscape="http://www.inkscape.org/namespaces/inkscape"
   xmlns:sodipodi="http://sodipodi.sourceforge.net/DTD/sodipodi-0.dtd"
   xmlns="http://www.w3.org/2000/svg"
   xmlns:svg="http://www.w3.org/2000/svg">
  <defs
     id="defs1" />
  <sodipodi:namedview
     id="namedview1"
     pagecolor="#505050"
     bordercolor="#eeeeee"
     borderopacity="1"
     inkscape:showpageshadow="0"
     inkscape:pageopacity="0"
     inkscape:pagecheckerboard="0"
     inkscape:deskcolor="#505050"
     inkscape:zoom="11.2875"
     inkscape:cx="18.826135"
     inkscape:cy="24.14175"
     inkscape:window-width="1916"
     inkscape:window-height="997"
     inkscape:window-x="0"
     inkscape:window-y="1035"
     inkscape:window-maximized="0"
     inkscape:current-layer="svg1" />
  <path
     d="M 598.03125,-608.625 H 412.35937 c -26.592,0 -48,21.408 -48,48 v 200.90625 h 185.67188 c 26.592,0 48,-21.408 48,-48 z"
     style="fill:none;stroke:#ffffff;stroke-width:72;stroke-linejoin:round;stroke-dashoffset:1.15654;paint-order:markers fill stroke"
     id="path3" />
  <path
     id="path2"
     style="display:inline;fill:none;stroke:#ffffff;stroke-width:72;stroke-linejoin:round;stroke-dashoffset:1.15654;paint-order:markers fill stroke"
     d="m 598.03125,-608.625 v 200.90625 c 0,26.592 -21.408,48 -48,48 H 364.35937 V -176.625 c 0,26.592 21.40801,48 48,48 h 384 c 26.59201,0 48,-21.408 48,-48 v -384 c 0,-26.592 -21.40799,-48 -48,-48 z m -432,-231.09375 c -26.592,0 -48,21.408 -48,48 v 384 c 0,26.592 21.408,48 48,48 H 364.35937 V -560.625 c 0,-26.592 21.408,-48 48,-48 h 185.67188 v -183.09375 c 0,-26.592 -21.408,-48 -48,-48 z" />
  <path
     style="fill:#b2b2b2;stroke:#ffffff;stroke-width:0.0939677;stroke-linejoin:round;stroke-dashoffset:1.15654;paint-order:markers fill stroke;fill-opacity:1"
     d="m 6.7755469,23.473067 c -0.1361714,-0.0394 -0.2835451,-0.194462 -0.3225731,-0.339402 -0.021923,-0.08141 -0.029728,-2.71413 -0.024256,-8.181373 0.008,-7.9976318 0.00856,-8.0621692 0.070714,-8.1676837 0.034455,-0.058495 0.1024398,-0.1360184 0.1510777,-0.172274 l 0.088433,-0.065919 8.1424705,-0.00801 c 8.114276,-0.00798 8.1429,-0.00779 8.266439,0.055236 0.07991,0.040768 0.146381,0.1071771 0.187034,0.1868646 0.06196,0.1214447 0.06307,0.1784895 0.06307,3.2405361 v 3.116915 l -3.42199,0.0095 -3.421989,0.0095 -0.297565,0.08631 c -1.405902,0.407785 -2.40723,1.581405 -2.566288,3.007853 -0.02176,0.195137 -0.03348,1.518135 -0.03348,3.778321 v 3.478039 l -3.390667,-0.0028 C 8.3005468,23.50308 6.8333788,23.48972 6.775555,23.47299 Z"
     id="path4"
     transform="matrix(24,0,0,24,0,-960)" />
  <path
     style="fill:#b2b2b2;fill-opacity:1;stroke:#ffffff;stroke-width:0.0939677;stroke-linejoin:round;stroke-dashoffset:1.15654;paint-order:markers fill stroke"
     d="m 16.992489,33.079486 c -0.11524,-0.05134 -0.219708,-0.161665 -0.264156,-0.278974 -0.02284,-0.06029 -0.03341,-1.067879 -0.03341,-3.186267 v -3.09809 l 3.406329,-0.0088 3.406328,-0.0088 0.313226,-0.08584 c 0.370249,-0.101468 0.920035,-0.367682 1.207518,-0.584699 0.567463,-0.428369 1.026533,-1.073769 1.238293,-1.740901 0.168197,-0.529887 0.169238,-0.556883 0.169438,-4.39312 l 1.84e-4,-3.547279 h 3.407522 3.407523 l 0.139757,0.07048 c 0.102208,0.05154 0.158741,0.108123 0.210411,0.210593 l 0.07065,0.140116 -0.008,8.118913 -0.008,8.118913 -0.06458,0.0865 c -0.03552,0.04757 -0.103504,0.115559 -0.151078,0.151078 l -0.0865,0.06458 -8.133739,0.0067 c -6.730658,0.0055 -8.149949,-5.2e-4 -8.227707,-0.03516 z"
     id="path5"
     transform="matrix(24,0,0,24,0,-960)" />
</svg>
