<?xml version="1.0" encoding="UTF-8" standalone="no"?>
<svg
   height="40px"
   viewBox="0 -960 960 960"
   width="40px"
   fill="#e3e3e3"
   version="1.1"
   id="svg1"
   sodipodi:docname="bool_intersection.svg"
   inkscape:version="1.4.3 (0d15f75, 2025-12-25)"
   xmlns:inkscape="http://www.inkscape.org/namespaces/inkscape"
   xmlns:sodipodi="http://sodipodi.sourceforge.net/DTD/sodipodi-0.dtd"
   xmlns="http://www.w3.org/2000/svg"
   xmlns:svg="http://www.w3.org/2000/svg">
  <defs
     id="defs1" />
  <sodipodi:namedview
     id="namedview1"
     pagecolor="#505050"
     bordercolor="#eeeeee"
     borderopacity="1"
     inkscape:showpageshadow="0"
     inkscape:pageopacity="0"
     inkscape:pagecheckerboard="0"
     inkscape:deskcolor="#505050"
     inkscape:zoom="5.64375"
     inkscape:cx="-18.870432"
     inkscape:cy="1.1517165"
     inkscape:window-width="1916"
     inkscape:window-height="997"
     inkscape:window-x="-9"
     inkscape:window-y="0"
     inkscape:window-maximized="0"
     inkscape:current-layer="svg1" />
  <path
     d="M 598.03125,-608.625 H 412.35937 c -26.592,0 -48,21.408 -48,48 v 200.90625 h 185.67188 c 26.592,0 48,-21.408 48,-48 z"
     style="fill:#b2b2b2;stroke:#ffffff;stroke-width:72;stroke-linejoin:round;stroke-dashoffset:1.15654;paint-order:markers fill stroke;fill-opacity:1"
     id="path3" />
  <path
     id="path2"
     style="display:inline;fill:none;stroke:#ffffff;stroke-width:24;stroke-linejoin:round;stroke-dashoffset:0;paint-order:markers fill stroke;stroke-dasharray:48,24"
     d="m 598.03125,-608.625 v 200.90625 c 0,26.592 -21.408,48 -48,48 H 364.35937 V -176.625 c 0,26.592 21.40801,48 48,48 h 384 c 26.59201,0 48,-21.408 48,-48 v -384 c 0,-26.592 -21.40799,-48 -48,-48 z m -432,-231.09375 c -26.592,0 -48,21.408 -48,48 v 384 c 0,26.592 21.408,48 48,48 H 364.35937 V -560.625 c 0,-26.592 21.408,-48 48,-48 h 185.67188 v -183.09375 c 0,-26.592 -21.408,-48 -48,-48 z" />
</svg>
