<svg xmlns="http://www.w3.org/2000/svg" height="40px" viewBox="0 -960 960 960" width="40px" fill="#e3e3e3"><path d="M162.33-162.33Q80-244.67 80-360q0-115.33 82.33-197.67Q244.67-640 360-640q115.33 0 197.67 82.33Q640-475.33 640-360q0 115.33-82.33 197.67Q475.33-80 360-80q-115.33 0-197.67-82.33Zm348.5-46.84q62.5-62.5 62.5-150.83 0-88.33-62.5-150.83-62.5-62.5-150.83-62.5-88.33 0-150.83 62.5-62.5 62.5-62.5 150.83 0 88.33 62.5 150.83 62.5 62.5 150.83 62.5 88.33 0 150.83-62.5Zm160.5-120.16Q672.67-336 673-344q.33-8 .33-16 0-129-92.16-221.17Q489-673.33 360-673.33q-8 0-15.67.33-7.66.33-14.33 1.67 23.33-89.34 98.17-149Q503-880 600-880q115.33 0 197.67 82.33Q880-715.33 880-600q0 97-59.33 171.5-59.34 74.5-149.34 99.17Z"/></svg>